<svg width="350" height="314" viewBox="0 0 350 314" fill="none" xmlns="http://www.w3.org/2000/svg">
<path d="M5.8983 99.5807V0H188.457C175.606 15.5122 66.9779 147.555 80.8115 203.323C82.7013 210.814 87.3125 229.353 102.053 236.315C116.038 242.898 132.064 235.634 138.489 232.683C189.288 209.679 242.657 22.1711 248.856 0H350V308.428H210.681C230.033 283.23 250.292 253.038 268.661 217.7C303.434 150.884 319.46 89.0626 327.095 41.5424C324.601 41.5424 322.106 41.6181 319.536 41.6937C315.529 54.8602 257.474 241.385 173.187 292.764C144.159 310.471 114.375 313.422 114.375 313.422C107.723 314.103 54.3537 318.492 22.0753 286.408C-0.375965 264.085 0.0776097 232.607 0.0020162 213.765C-0.451545 119.936 75.7467 48.5796 99.4831 27.8463C81.265 37.3049 60.0233 50.4713 38.2523 68.7076C25.7794 79.2256 15.0451 89.668 5.97388 99.5807H5.8983Z" fill="#0100FE"></path>
</svg>